<svg width="143" height="87" viewBox="0 0 143 87" fill="none" xmlns="http://www.w3.org/2000/svg">
<path d="M15.5089 86.6254H127.766C132.626 86.6254 136.611 82.9746 137.036 78.1335L142.642 14.1953C142.947 10.7143 141.769 7.23992 139.408 4.66327C137.047 2.08684 133.689 0.609131 130.195 0.609131H13.0805C9.58614 0.609131 6.22795 2.08684 3.86736 4.66327C1.50674 7.24003 0.328323 10.7144 0.633316 14.1953L6.23956 78.1332C6.66389 82.9746 10.6489 86.6254 15.5089 86.6254ZM130.195 4.11296C132.746 4.11296 135.101 5.1492 136.825 7.03045C138.548 8.91169 139.374 11.3475 139.151 13.8893L133.545 77.8272C133.28 80.8454 130.796 83.1216 127.766 83.1216H15.5089C12.4789 83.1216 9.99475 80.8454 9.73026 77.8272L4.12399 13.8893C3.90106 11.3476 4.72763 8.9118 6.45088 7.03045C8.17468 5.1492 10.5289 4.11296 13.0805 4.11296H130.195Z" fill="#000072"/>
</svg>
