<svg width="141" height="14" viewBox="0 0 141 14" fill="none" xmlns="http://www.w3.org/2000/svg">
<path d="M1.33781 0.402832C2.08717 4.10825 4.09227 7.29683 6.85718 9.5604C9.62196 11.8187 13.1465 13.1521 16.9294 13.1521H124.349C131.915 13.1521 138.437 7.81883 139.941 0.402832H1.33781Z" fill="#C6D3E3"/>
<path d="M16.9294 13.4439H124.349C132.024 13.4439 138.701 7.98355 140.227 0.460821L140.298 0.110596H0.980545L1.05151 0.46061C1.78978 4.11089 3.78604 7.42276 6.67198 9.78595C9.55998 12.1447 13.2026 13.4439 16.9294 13.4439ZM139.58 0.69483C137.976 7.76502 131.628 12.8596 124.349 12.8596H16.9294C13.3372 12.8596 9.82547 11.6075 7.04152 9.33395C4.35222 7.13166 2.46439 4.07457 1.69878 0.69483H139.58Z" fill="#000072"/>
</svg>
