<svg width="140" height="84" viewBox="0 0 140 84" fill="none" xmlns="http://www.w3.org/2000/svg">
<path d="M0.379089 12.0444L5.98621 75.9815C6.32729 79.8833 9.59341 82.8755 13.5107 82.8755H125.768C129.68 82.8755 132.946 79.8834 133.292 75.9815L138.894 12.0444C139.447 5.76537 134.496 0.359863 128.197 0.359863H11.0818C9.01984 0.359863 7.10248 0.938627 5.47464 1.93601C2.12581 3.9928 0.00698853 7.82227 0.379089 12.0444Z" fill="#C6D3E3"/>
<path d="M13.511 83.1679H125.768C129.861 83.1679 133.221 80.0895 133.583 76.0075L139.185 12.0701C139.456 8.99594 138.415 5.92701 136.33 3.64976C134.246 1.37359 131.281 0.0678711 128.197 0.0678711H11.0821C9.04327 0.0678711 7.05185 0.627906 5.32236 1.68732C1.72388 3.89747 -0.281235 7.87621 0.0883789 12.0705V12.0703L5.6956 76.0074C6.05208 80.0895 9.41191 83.1679 13.511 83.1679ZM128.197 0.652026C131.118 0.652026 133.925 1.88828 135.899 4.04437C137.874 6.20068 138.86 9.10742 138.603 12.0191L133.001 75.9562C132.666 79.7346 129.556 82.5837 125.767 82.5837H13.5109C9.71681 82.5837 6.60728 79.7346 6.27708 75.9562L0.66983 12.0189C0.319595 8.0468 2.21906 4.27841 5.62767 2.185C7.26466 1.18212 9.15097 0.652131 11.082 0.652131L128.197 0.652026Z" fill="#000072"/>
</svg>
