<svg width="171" height="106" viewBox="0 0 171 106" fill="none" xmlns="http://www.w3.org/2000/svg">
<path d="M30.9841 105.091L30.2815 105.008C10.6852 102.678 -2.7281 84.0887 1.23859 64.7571L8.60104 28.8766C11.9607 12.5034 26.3708 0.75 43.0852 0.75H85.9243H84.7122H127.551C144.266 0.75 158.676 12.5034 162.035 28.8766L169.398 64.7571C173.365 84.0887 159.951 102.678 140.355 105.008L139.652 105.091H30.9841Z" fill="#4D5A6A"/>
<path d="M30.9684 105.361H139.652L140.386 105.276C149.802 104.156 158.383 99.1043 163.931 91.4154C169.479 83.7267 171.567 73.9907 169.662 64.7031L162.3 28.8226C158.929 12.4005 144.316 0.480957 127.551 0.480957H43.0853C26.3208 0.480957 11.7076 12.4004 8.3374 28.8226L0.974808 64.7031C-0.930878 73.9909 1.15834 83.7274 6.7057 91.4159C12.2536 99.1046 20.8351 104.156 30.2502 105.276L30.9684 105.361ZM127.551 1.01955C144.061 1.01955 158.453 12.7582 161.772 28.931L169.134 64.8115C171.009 73.9515 168.954 83.5335 163.494 91.1005C158.035 98.6674 149.589 103.639 140.323 104.741L139.621 104.824L31 104.822L30.3131 104.741C21.0475 103.639 12.6021 98.6676 7.14261 91.101C1.6826 83.5341 -0.373001 73.9521 1.50276 64.8116L8.86534 28.9311C12.1836 12.7582 26.5753 1.01965 43.0853 1.01965L127.551 1.01955Z" fill="#000072"/>
</svg>
