<svg width="174" height="108" viewBox="0 0 174 108" fill="none" xmlns="http://www.w3.org/2000/svg">
<path d="M32.984 107.843H141.652C141.721 107.843 141.79 107.839 141.858 107.831L142.561 107.748C152.388 106.58 161.344 101.307 167.133 93.283C172.923 85.2588 175.103 75.0976 173.114 65.4049L165.752 29.5248C162.241 12.4158 147.016 -0.00170898 129.551 -0.00170898H45.0852C27.6202 -0.00170898 12.3954 12.4157 8.88475 29.5248L1.52216 65.4052C-0.466675 75.0982 1.71352 85.2595 7.5033 93.2836C13.2931 101.308 22.249 106.58 32.0748 107.748L32.7773 107.831C32.8463 107.84 32.9151 107.843 32.984 107.843ZM141.549 104.34H33.0876L32.4877 104.268C23.6337 103.216 15.5623 98.4643 10.3447 91.2332C5.12709 84.0018 3.16249 74.8447 4.95509 66.1093L12.3177 30.2288C15.4955 14.7424 29.2762 3.50199 45.0853 3.50199H129.551C145.361 3.50199 159.141 14.7423 162.319 30.2288L169.681 66.1093C171.474 74.8443 169.51 84.0015 164.292 91.2327C159.074 98.4643 151.003 103.216 142.148 104.268L141.549 104.34Z" fill="#000072"/>
</svg>
