<svg width="216" height="4" viewBox="0 0 216 4" fill="none" xmlns="http://www.w3.org/2000/svg">
<path d="M214.745 1.58739C210.297 0.718382 205.849 0.48705 201.401 0.3926C196.954 0.271118 192.506 0.335521 188.058 0.401539C183.611 0.453126 179.163 0.466262 174.715 0.457754H161.372H108H54.6277H27.9414L21.27 0.45594C19.0462 0.457232 16.8223 0.379686 14.5984 0.343931C10.1507 0.323899 5.70322 0.374724 1.25545 1.58728C0.943558 1.67225 0.759613 1.99407 0.844803 2.30585C0.901016 2.51273 1.06277 2.6634 1.25545 2.71649C5.70322 3.92884 10.1507 3.97966 14.5984 3.95985C16.8223 3.92409 19.0462 3.84623 21.27 3.84763L27.9414 3.84579H54.6277H108H161.372H174.715C179.163 3.8376 183.611 3.85074 188.058 3.902C192.506 3.96823 196.954 4.03244 201.401 3.91118C205.849 3.81651 210.297 3.58539 214.745 2.71639C215.057 2.65543 215.26 2.35323 215.199 2.04144C215.153 1.80516 214.967 1.631 214.745 1.58739Z" fill="#000072"/>
</svg>
