<svg width="132" height="137" viewBox="0 0 132 137" fill="none" xmlns="http://www.w3.org/2000/svg">
<path d="M2.92853 84.2483C3.03365 84.6571 3.14455 85.0718 3.25559 85.4747C3.34315 85.7842 3.43083 86.0879 3.51839 86.3916C3.55339 86.5084 3.58256 86.6194 3.62348 86.7361C3.6936 86.9873 3.77534 87.2384 3.85126 87.4836C3.95056 87.8049 4.05567 88.1203 4.16079 88.4356C4.20753 88.5757 4.25427 88.7159 4.3009 88.8502C4.45275 89.3057 4.61043 89.7554 4.77983 90.1992C4.95506 90.6898 5.14192 91.1745 5.33469 91.6533C5.52155 92.1381 5.72012 92.617 5.92453 93.0958C6.12312 93.5688 6.33335 94.0477 6.54939 94.515C6.7538 94.9704 6.96404 95.4202 7.18008 95.8699C7.20927 95.9283 7.23845 95.9866 7.26764 96.0451C7.46623 96.4656 7.67645 96.8802 7.89249 97.2948C7.89831 97.3065 7.90411 97.3182 7.91003 97.3298C8.14363 97.7912 8.38306 98.2408 8.62839 98.6964C8.92036 99.2337 9.21822 99.7651 9.52775 100.291C9.73797 100.659 9.95412 101.021 10.1702 101.383C10.1818 101.394 10.1876 101.406 10.1876 101.412C10.4563 101.856 10.7307 102.294 11.0111 102.732C11.4783 103.462 11.9571 104.186 12.4535 104.904C12.6696 105.22 12.8916 105.529 13.1135 105.839C13.3004 106.101 13.4872 106.358 13.68 106.621C13.9662 107.013 14.2582 107.398 14.5502 107.783C14.8363 108.157 15.1225 108.519 15.4145 108.887C15.578 109.092 15.7414 109.296 15.905 109.495C16.0101 109.623 16.1152 109.751 16.2204 109.88C16.4189 110.114 16.6116 110.347 16.8102 110.581C17.3475 111.211 17.8964 111.836 18.4571 112.455C18.7257 112.759 19.006 113.057 19.2864 113.355C19.4908 113.571 19.6952 113.793 19.8996 114.009C20.1916 114.312 20.4777 114.61 20.7756 114.902C21.1961 115.328 21.6283 115.755 22.0604 116.175C22.4108 116.514 22.7612 116.847 23.1175 117.174C23.17 117.227 23.2226 117.279 23.2752 117.32C23.6372 117.664 24.0051 117.997 24.3789 118.33C25.0623 118.944 25.7572 119.539 26.4638 120.129C26.6391 120.275 26.8143 120.421 26.9953 120.573C27.3516 120.865 27.7137 121.157 28.0815 121.449C29.3546 122.459 30.6569 123.434 31.9885 124.375C32.0118 124.392 32.041 124.41 32.0644 124.427C37.2561 128.083 42.9033 130.799 48.7667 132.58C50.7989 133.199 52.8604 133.707 54.9395 134.104C64.1491 135.856 73.6916 135.395 82.726 132.732C88.7996 130.945 94.6454 128.159 100.012 124.375C100.433 124.077 100.853 123.773 101.274 123.469C101.315 123.434 101.355 123.405 101.402 123.376C101.817 123.067 102.231 122.757 102.64 122.448C103.067 122.12 103.493 121.788 103.919 121.449H103.925C104.345 121.11 104.76 120.772 105.175 120.433C105.595 120.088 106.004 119.738 106.413 119.387C106.822 119.037 107.224 118.687 107.622 118.33C108.025 117.968 108.422 117.612 108.813 117.244C109.204 116.882 109.59 116.514 109.975 116.14C110.361 115.772 110.74 115.399 111.114 115.019C111.488 114.64 111.861 114.26 112.229 113.875C112.597 113.483 112.965 113.092 113.333 112.695C113.684 112.309 114.028 111.924 114.373 111.527C114.641 111.223 114.91 110.914 115.173 110.604C115.938 109.699 116.685 108.776 117.409 107.836C117.701 107.451 117.999 107.065 118.28 106.674C118.321 106.627 118.356 106.575 118.391 106.528C118.589 106.265 118.782 105.996 118.969 105.728C119.401 105.121 119.821 104.513 120.23 103.894C120.458 103.555 120.686 103.211 120.902 102.866C121.235 102.346 121.562 101.827 121.883 101.295C122.105 100.921 122.333 100.542 122.554 100.162C122.858 99.6309 123.156 99.0877 123.454 98.5445C123.67 98.1357 123.886 97.7269 124.096 97.3182C124.312 96.9036 124.523 96.4831 124.721 96.0626C124.756 96.0042 124.785 95.9458 124.809 95.8873C125.253 94.9821 125.667 94.0653 126.053 93.1426C126.076 93.1017 126.094 93.0666 126.105 93.0257C126.298 92.5703 126.485 92.1147 126.666 91.6533C126.859 91.1744 127.046 90.6897 127.221 90.1992C127.402 89.7145 127.577 89.2239 127.74 88.7334C127.863 88.3713 127.986 88.0034 128.103 87.6354C128.196 87.3434 128.284 87.0514 128.371 86.7594C128.412 86.6309 128.453 86.4966 128.488 86.3681C128.576 86.082 128.657 85.8016 128.733 85.5155C128.85 85.095 128.961 84.6745 129.072 84.2482C133.44 53.4132 105.403 19.2171 77.3884 4.55292C70.2636 0.821227 61.7373 0.821227 54.6126 4.55292C53.9819 4.88 53.3569 5.23033 52.7262 5.59241L52.7204 5.59823C25.3481 21.3313 -1.34058 54.1084 2.92853 84.2483Z" fill="#4D5A6A"/>
<g opacity="0.4">
<path d="M55.2252 134.043C54.4314 133.837 53.64 133.62 52.8545 133.38C46.9911 131.599 41.3439 128.884 36.1522 125.228C36.1288 125.21 36.0994 125.193 36.0761 125.175C34.7447 124.235 33.4424 123.26 32.1692 122.249C31.8013 121.957 31.4392 121.665 31.083 121.373C30.902 121.222 30.7269 121.076 30.5516 120.93C29.845 120.34 29.15 119.744 28.4667 119.131C28.0929 118.798 27.725 118.465 27.363 118.121C27.3105 118.08 27.258 118.027 27.2053 117.975C26.8492 117.648 26.4987 117.314 26.1483 116.976C25.7163 116.555 25.2842 116.129 24.8637 115.703C24.5657 115.411 24.2796 115.113 23.9877 114.809C23.7832 114.593 23.5787 114.371 23.3743 114.155C23.0943 113.857 22.8137 113.56 22.5451 113.256C21.9845 112.637 21.4356 112.012 20.8983 111.381C20.6998 111.148 20.507 110.914 20.3083 110.68C20.2034 110.552 20.0982 110.424 19.993 110.295C19.8296 110.096 19.6662 109.892 19.5025 109.688C19.2105 109.32 18.9245 108.958 18.6382 108.584C18.3463 108.198 18.0542 107.813 17.7683 107.422C17.5755 107.159 17.3884 106.902 17.2017 106.639C16.9798 106.33 16.758 106.02 16.5418 105.705C16.0453 104.986 15.5666 104.262 15.0992 103.532C14.8189 103.094 14.5446 102.656 14.276 102.212C14.276 102.207 14.27 102.195 14.2583 102.183C14.0425 101.821 13.8263 101.459 13.6158 101.091C13.3064 100.566 13.0084 100.034 12.7164 99.4969C12.4712 99.0413 12.2319 98.5919 11.9984 98.1305C11.9924 98.1188 11.9865 98.1071 11.9808 98.0954C11.7646 97.6807 11.5545 97.2659 11.356 96.8455C11.3266 96.7871 11.2975 96.7287 11.2684 96.6704C11.0523 96.2208 10.8419 95.7711 10.6377 95.3154C10.4215 94.8483 10.2111 94.3693 10.0126 93.8965C9.80838 93.4175 9.6097 92.9386 9.42284 92.4539C9.23007 91.9751 9.04299 91.4903 8.86787 90.9999C8.69847 90.5559 8.54079 90.1062 8.38905 89.6508C8.34231 89.5165 8.29557 89.3761 8.24873 89.2359C8.14383 88.9208 8.0386 88.6055 7.93931 88.2841C7.86349 88.0389 7.78164 87.7879 7.71153 87.5367C7.67072 87.4198 7.64144 87.3089 7.60633 87.1919C7.51878 86.8885 7.43119 86.5849 7.34374 86.2751C7.23281 85.8722 7.1219 85.4576 7.01668 85.0487C2.79981 55.2783 28.7865 22.9344 55.802 6.98486C36.7976 24.2706 22.4179 48.4902 25.6344 71.2138C25.7397 71.6227 25.8506 72.0374 25.9615 72.4403C26.0491 72.7499 26.1369 73.0534 26.2244 73.357C26.2595 73.474 26.2886 73.5849 26.3293 73.7017C26.3994 73.9527 26.4813 74.2039 26.5571 74.4492C26.6563 74.7705 26.7615 75.0859 26.8667 75.401C26.9132 75.5413 26.96 75.6813 27.0067 75.8159C27.1587 76.2713 27.3161 76.721 27.4855 77.1647C27.6609 77.6555 27.8477 78.1399 28.0405 78.6191C28.2272 79.1038 28.426 79.5826 28.6301 80.0613C28.8289 80.5344 29.0391 81.0135 29.2552 81.4806C29.4596 81.936 29.6698 82.386 29.886 82.8353C29.915 82.8938 29.9441 82.9522 29.9735 83.0106C30.172 83.4309 30.3821 83.8458 30.5983 84.2604C30.6043 84.2718 30.6099 84.2838 30.616 84.2952C30.8495 84.7566 31.0887 85.2063 31.3343 85.662C31.6262 86.1993 31.924 86.7308 32.2337 87.2563C32.4438 87.6242 32.6599 87.9863 32.8761 88.3485C32.8875 88.3599 32.8935 88.3719 32.8935 88.3776C33.1621 88.8213 33.4367 89.2593 33.7168 89.6973C34.1842 90.4272 34.6629 91.1516 35.1594 91.8699C35.3755 92.1852 35.5974 92.4946 35.8192 92.8043C36.0063 93.067 36.193 93.3239 36.3858 93.5869C36.6721 93.9781 36.9641 94.3636 37.2561 94.7491C37.5421 95.1227 37.8282 95.4848 38.1201 95.8527C38.2838 96.0571 38.4472 96.2616 38.6109 96.4601C38.7162 96.5887 38.8211 96.717 38.9263 96.8456C39.1248 97.0792 39.3175 97.3127 39.516 97.5465C40.0532 98.177 40.6021 98.8021 41.1628 99.4211C41.4317 99.7248 41.7121 100.023 41.9923 100.321C42.1967 100.536 42.4009 100.759 42.6054 100.974C42.8974 101.278 43.1837 101.576 43.4814 101.868C43.902 102.294 44.3341 102.721 44.7663 103.141C45.1168 103.48 45.4669 103.813 45.8234 104.14C45.8758 104.192 45.9283 104.245 45.9808 104.286C46.343 104.63 46.7108 104.963 47.0846 105.296C47.7682 105.909 48.4628 106.505 49.1696 107.095C49.3448 107.241 49.5201 107.387 49.7009 107.539C50.0574 107.831 50.4192 108.123 50.7874 108.415C52.0603 109.425 53.3626 110.4 54.6943 111.34C54.7176 111.358 54.7467 111.375 54.7701 111.393C59.9619 115.049 65.6091 117.764 71.4724 119.546C73.5047 120.165 75.5661 120.673 77.6452 121.07C77.5457 121.051 77.4467 121.028 77.3472 121.009C78.6065 121.336 79.874 121.626 81.1491 121.87C88.7684 123.319 96.615 123.249 104.214 121.675C104.302 121.606 104.391 121.538 104.479 121.468C104.061 121.8 103.642 122.127 103.224 122.448C102.815 122.758 102.401 123.067 101.986 123.377C101.939 123.406 101.898 123.435 101.857 123.47C101.437 123.774 101.017 124.077 100.596 124.375C95.2291 128.16 89.3834 130.945 83.3099 132.733C74.2754 135.395 64.733 135.857 55.5234 134.105C54.4366 133.897 53.3552 133.657 52.2795 133.389C53.2565 133.632 54.2389 133.85 55.2252 134.043Z" fill="#000072"/>
</g>
<g opacity="0.55">
<path d="M42.7044 12.4963C44.8593 11.0363 47.0377 9.67557 49.216 8.42004L49.2218 8.41422C49.8525 8.05214 50.4773 7.7017 51.1081 7.37473C58.2329 3.64304 66.7592 3.64304 73.8839 7.37473C101.898 22.0388 129.936 56.2376 125.568 87.0726C125.457 87.4989 125.346 87.9194 125.229 88.3399C125.153 88.626 125.071 88.9064 124.984 89.1925C124.949 89.321 124.908 89.4553 124.867 89.5838C124.779 89.8757 124.692 90.1678 124.598 90.4598C124.481 90.8277 124.359 91.1957 124.236 91.5578C124.073 92.0483 123.897 92.5389 123.716 93.0236C123.541 93.5142 123.354 93.9988 123.162 94.4777C122.981 94.9391 122.794 95.3946 122.601 95.8501C122.589 95.891 122.572 95.926 122.548 95.967C122.163 96.8897 121.748 97.8065 121.304 98.7117C121.281 98.7701 121.252 98.8285 121.217 98.8869C121.018 99.3074 120.808 99.7278 120.592 100.143C120.382 100.551 120.166 100.96 119.95 101.369C119.652 101.912 119.354 102.455 119.05 102.987C118.828 103.366 118.601 103.746 118.379 104.12C118.058 104.651 117.73 105.171 117.398 105.691C117.182 106.035 116.954 106.38 116.726 106.718C116.317 107.337 115.897 107.945 115.464 108.552C115.278 108.821 115.085 109.09 114.886 109.352C114.851 109.399 114.816 109.452 114.775 109.498C114.495 109.89 114.197 110.275 113.905 110.66C113.181 111.601 112.434 112.523 111.668 113.429C111.406 113.738 111.137 114.048 110.868 114.351C110.524 114.748 110.179 115.134 109.829 115.519C109.461 115.916 109.093 116.308 108.725 116.699C108.357 117.084 107.984 117.464 107.61 117.844C107.236 118.223 106.856 118.597 106.471 118.965C106.085 119.338 105.7 119.706 105.309 120.069C104.918 120.437 104.52 120.793 104.117 121.155C103.72 121.511 103.317 121.861 102.909 122.212C102.5 122.562 102.091 122.913 101.67 123.257C101.256 123.596 100.841 123.935 100.421 124.273H100.415C99.9887 124.612 99.5623 124.945 99.136 125.272C98.7564 125.558 98.371 125.844 97.9856 126.136C98.4703 125.821 98.9492 125.494 99.4281 125.155C99.8486 124.857 100.269 124.554 100.69 124.25C100.73 124.215 100.771 124.186 100.818 124.156C101.233 123.847 101.647 123.537 102.056 123.228C102.482 122.901 102.909 122.568 103.335 122.229H103.341C103.761 121.891 104.176 121.552 104.591 121.213C105.011 120.869 105.42 120.518 105.829 120.168C106.237 119.817 106.64 119.467 107.038 119.111C107.441 118.749 107.838 118.392 108.229 118.024C108.62 117.662 109.006 117.294 109.391 116.921C109.776 116.553 110.156 116.179 110.53 115.799C110.904 115.42 111.277 115.04 111.645 114.655C112.013 114.264 112.381 113.872 112.749 113.475C113.099 113.09 113.444 112.704 113.789 112.307C114.057 112.004 114.326 111.694 114.589 111.385C115.354 110.479 116.101 109.557 116.825 108.616C117.117 108.231 117.415 107.845 117.696 107.454C117.736 107.407 117.771 107.355 117.806 107.308C118.005 107.045 118.198 106.777 118.385 106.508C118.817 105.901 119.237 105.293 119.646 104.674C119.874 104.336 120.102 103.991 120.318 103.647C120.651 103.127 120.978 102.607 121.299 102.076C121.521 101.702 121.748 101.322 121.97 100.943C122.274 100.411 122.572 99.868 122.87 99.3249C123.086 98.916 123.302 98.5072 123.512 98.0985C123.728 97.6839 123.939 97.2634 124.137 96.8429C124.172 96.7845 124.201 96.7261 124.225 96.6676C124.668 95.7625 125.083 94.8456 125.469 93.9229C125.492 93.882 125.509 93.847 125.521 93.806C125.714 93.3506 125.901 92.895 126.082 92.4337C126.274 91.9547 126.461 91.4701 126.637 90.9795C126.818 90.4948 126.993 90.0042 127.156 89.5137C127.279 89.1516 127.402 88.7837 127.518 88.4158C127.612 88.1238 127.699 87.8318 127.787 87.5398C127.828 87.4113 127.869 87.277 127.904 87.1486C127.991 86.8624 128.073 86.5821 128.149 86.2959C128.266 85.8755 128.377 85.4549 128.488 85.0286C132.856 54.1936 104.818 19.9949 76.8041 5.33075C69.6794 1.59906 61.1531 1.59906 54.0283 5.33075C53.3977 5.65783 52.7727 6.00816 52.142 6.37024L52.1362 6.37606C48.9648 8.19808 45.8055 10.2479 42.7044 12.4963Z" fill="white"/>
</g>
<path d="M66.0005 136.887C78.2773 136.888 90.5515 133.194 101.022 125.807C101.45 125.504 101.875 125.197 102.3 124.889C102.322 124.874 102.343 124.857 102.365 124.84C102.394 124.821 102.422 124.801 102.451 124.78C102.891 124.451 103.298 124.147 103.698 123.844C104.112 123.527 104.518 123.209 104.924 122.887C104.959 122.864 104.991 122.84 105.023 122.814C105.434 122.483 105.839 122.152 106.244 121.821C106.716 121.435 107.135 121.076 107.553 120.718C107.972 120.358 108.385 119.999 108.792 119.634L108.849 119.583C109.243 119.229 109.63 118.88 110.013 118.52C110.404 118.158 110.799 117.781 111.195 117.398C111.583 117.027 111.976 116.641 112.362 116.248C112.758 115.846 113.131 115.468 113.497 115.083C113.877 114.68 114.247 114.286 114.618 113.886C114.989 113.477 115.343 113.082 115.696 112.675C115.962 112.375 116.239 112.056 116.509 111.736C117.311 110.788 118.081 109.836 118.798 108.905L118.991 108.65C119.22 108.349 119.448 108.048 119.668 107.743C119.709 107.693 119.747 107.641 119.784 107.59C120 107.304 120.206 107.016 120.406 106.729C120.875 106.07 121.299 105.454 121.692 104.86C121.922 104.517 122.16 104.157 122.386 103.797C122.719 103.278 123.054 102.745 123.382 102.2L123.588 101.854C123.748 101.586 123.909 101.316 124.067 101.046C124.368 100.519 124.656 99.9953 124.943 99.4721L124.989 99.3876C125.222 98.9482 125.442 98.5331 125.655 98.1184C125.866 97.7127 126.076 97.2926 126.276 96.8722C126.324 96.7844 126.369 96.6954 126.407 96.6064C126.878 95.6308 127.282 94.7417 127.638 93.8926C127.672 93.8246 127.71 93.743 127.744 93.6491C127.934 93.1989 128.118 92.7486 128.297 92.2927C128.492 91.8068 128.688 91.3004 128.871 90.7879C129.05 90.3078 129.232 89.7975 129.402 89.2871C129.526 88.9221 129.652 88.5438 129.773 88.1654C129.868 87.8659 129.958 87.5649 130.049 87.2636C130.089 87.1371 130.137 86.9807 130.178 86.8311C130.257 86.5721 130.345 86.271 130.427 85.9633C130.54 85.5545 130.654 85.1251 130.767 84.6897C130.784 84.6253 130.797 84.5598 130.806 84.4941C133.452 65.8212 124.654 48.5406 116.808 37.3319C106.894 23.1675 92.8218 10.6543 78.2007 3.00094C70.5609 -1.00031 61.4393 -1.00031 53.7996 3.00094C39.1785 10.6544 25.1064 23.1678 15.1918 37.3319C7.34589 48.5406 -1.45122 65.8213 1.1938 84.4941C1.20329 84.5583 1.21591 84.6222 1.23218 84.685C1.33943 85.1031 1.45305 85.5272 1.56657 85.9394L1.86681 86.9851C1.89308 87.0757 1.91936 87.1649 1.94984 87.2565C2.0024 87.4407 2.0598 87.6251 2.1171 87.807L2.17761 88C2.27336 88.3105 2.37428 88.6145 2.47476 88.9181L2.49792 88.987C2.54843 89.1377 2.59734 89.2852 2.64677 89.4264C2.79927 89.8837 2.96542 90.3567 3.14313 90.8234C3.31297 91.3009 3.50811 91.8075 3.71004 92.3082C3.89409 92.7867 4.10078 93.2847 4.31273 93.7825C4.51627 94.2662 4.73499 94.7642 4.95954 95.2501C5.16148 95.7009 5.37816 96.1646 5.6011 96.6287L5.70256 96.8314C5.89135 97.2336 6.11222 97.669 6.33936 98.1044C6.58706 98.5953 6.83368 99.0579 7.08558 99.5261C7.39004 100.087 7.69817 100.636 8.01738 101.179C8.22243 101.538 8.4444 101.909 8.66582 102.28C8.66841 102.284 8.67055 102.288 8.67313 102.292C8.67841 102.301 8.68369 102.31 8.68886 102.319C8.96488 102.775 9.24738 103.226 9.53547 103.676C10.0493 104.479 10.5325 105.206 11.0121 105.9C11.2314 106.22 11.4607 106.54 11.6894 106.859C11.8782 107.124 12.069 107.387 12.2662 107.656C12.5586 108.055 12.8558 108.448 13.1533 108.841C13.4515 109.23 13.7438 109.601 14.0431 109.977C14.2151 110.192 14.3839 110.403 14.5532 110.608L15.4755 111.716C16.0255 112.361 16.5914 113.005 17.1588 113.631C17.4165 113.923 17.7015 114.227 17.9865 114.53L18.6281 115.213C18.9478 115.546 19.2428 115.853 19.5495 116.154C19.957 116.567 20.3977 117.002 20.8389 117.431C21.1955 117.776 21.5483 118.111 21.9075 118.441C21.9742 118.507 22.0421 118.571 22.1094 118.629C22.4717 118.973 22.8398 119.305 23.2143 119.639C23.9399 120.284 24.6551 120.901 25.3409 121.473L25.8682 121.914C26.2474 122.225 26.617 122.523 26.9915 122.821C28.2819 123.845 29.6234 124.849 30.9776 125.806C30.9881 125.813 31.0228 125.837 31.0423 125.85C31.0471 125.853 31.0518 125.857 31.0565 125.86C41.51 133.212 53.7568 136.887 66.0005 136.887ZM100.204 122.081C99.8024 122.371 99.4007 122.661 98.9994 122.945C79.2948 136.847 52.8002 136.868 33.0714 122.994V122.994C33.0441 122.975 33.0147 122.954 32.9973 122.943C31.6974 122.025 30.4096 121.06 29.1701 120.077C28.8099 119.79 28.4549 119.504 28.1058 119.218L27.5862 118.784C26.9288 118.235 26.2411 117.641 25.5432 117.021C25.1846 116.702 24.8307 116.382 24.483 116.051C24.4531 116.022 24.4215 115.994 24.3889 115.968L24.3563 115.935C24.3384 115.917 24.32 115.9 24.3016 115.883C23.9566 115.566 23.6174 115.244 23.2782 114.916C22.8586 114.508 22.4348 114.09 22.0236 113.672C21.7202 113.375 21.4493 113.093 21.1737 112.806L20.5606 112.152C20.2788 111.853 20.019 111.577 19.7702 111.295C19.2117 110.679 18.6695 110.061 18.1437 109.444L17.2639 108.388C17.0993 108.188 16.941 107.991 16.7827 107.793C16.5003 107.437 16.2205 107.083 15.9409 106.718C15.6605 106.348 15.3739 105.97 15.0932 105.586C14.9054 105.33 14.7229 105.079 14.5405 104.822C14.3223 104.518 14.1076 104.219 13.8984 103.913C13.4383 103.248 12.9776 102.554 12.4865 101.787C12.2147 101.362 11.948 100.937 11.6871 100.506C11.6829 100.499 11.6787 100.492 11.6746 100.485C11.4637 100.132 11.2534 99.7791 11.0483 99.4207C10.7386 98.8937 10.4504 98.3797 10.168 97.86C9.93288 97.4235 9.69994 96.9868 9.47334 96.5387C9.47021 96.5324 9.44963 96.4911 9.44597 96.4849C9.24091 96.091 9.04104 95.6972 8.85224 95.2978L8.74444 95.0805C8.54984 94.675 8.34586 94.2399 8.14867 93.7987C7.93198 93.3307 7.73006 92.8708 7.53922 92.417C7.33987 91.9489 7.14902 91.4888 6.9697 91.0235C6.77563 90.5412 6.5974 90.0782 6.43015 89.61C6.25665 89.1535 6.10672 88.7273 5.96262 88.2955L5.80066 87.8146C5.70707 87.5333 5.61347 87.2519 5.52505 86.9657L5.46035 86.7585C5.4093 86.5954 5.35726 86.4306 5.31095 86.2658C5.30093 86.2284 5.28944 86.1917 5.2763 86.155C5.25949 86.1061 5.24635 86.0585 5.23267 86.0107L4.94082 84.9963C4.84454 84.6459 4.7447 84.2746 4.64949 83.9062C2.74585 70.2417 7.50701 54.42 18.0622 39.3412C27.666 25.6215 41.2837 13.5071 55.4248 6.10509C62.0464 2.6365 69.9533 2.6365 76.575 6.10509C90.716 13.5071 104.334 25.6212 113.938 39.3412C124.492 54.4193 129.253 70.2404 127.351 83.9044C127.25 84.288 127.15 84.6674 127.045 85.0465C126.969 85.3326 126.893 85.5918 126.812 85.8566C126.769 86.0126 126.734 86.1248 126.7 86.2321C126.608 86.5378 126.523 86.8205 126.433 87.1034C126.319 87.4626 126.199 87.8199 126.08 88.1714C125.921 88.6499 125.753 89.1209 125.579 89.5863C125.403 90.0788 125.224 90.5421 125.04 90.9998C124.859 91.461 124.678 91.9022 124.491 92.3434C124.488 92.3516 124.484 92.3597 124.481 92.3681C124.465 92.4009 124.45 92.4343 124.436 92.4669C124.091 93.2918 123.697 94.1608 123.231 95.1241C123.22 95.1473 123.209 95.1707 123.199 95.1944C123.177 95.2332 123.156 95.273 123.137 95.3135C122.948 95.7134 122.748 96.1139 122.542 96.5083C122.33 96.9203 122.117 97.3228 121.905 97.7257L121.872 97.7856C121.594 98.2918 121.316 98.7977 121.033 99.2933C120.889 99.5394 120.733 99.8008 120.579 100.06L120.376 100.4C120.07 100.908 119.75 101.414 119.426 101.921C119.211 102.264 118.994 102.593 118.776 102.916C118.398 103.488 117.997 104.071 117.541 104.712C117.357 104.976 117.178 105.226 116.993 105.47C116.985 105.481 116.949 105.53 116.941 105.541L116.965 105.515C116.925 105.56 116.889 105.606 116.854 105.654C116.644 105.948 116.422 106.239 116.201 106.529L116.012 106.778C115.336 107.656 114.601 108.566 113.834 109.473C113.581 109.771 113.321 110.071 113.06 110.366C112.713 110.766 112.377 111.141 112.036 111.517C111.683 111.898 111.318 112.286 110.953 112.675C110.608 113.036 110.248 113.401 109.888 113.766C109.504 114.157 109.137 114.517 108.765 114.873C108.379 115.247 108.004 115.605 107.622 115.958C107.248 116.31 106.88 116.641 106.506 116.976L106.45 117.027C106.064 117.374 105.67 117.716 105.272 118.058C104.873 118.399 104.474 118.742 104.064 119.078C103.658 119.409 103.285 119.714 102.908 120.018C102.882 120.037 102.855 120.056 102.829 120.077C102.411 120.409 101.992 120.736 101.573 121.058C101.192 121.346 100.797 121.642 100.401 121.937C100.332 121.983 100.267 122.03 100.204 122.081ZM24.3484 115.935C24.3526 115.939 24.3568 115.942 24.361 115.945C24.3568 115.942 24.3526 115.939 24.3484 115.935ZM124.42 92.5477C124.419 92.5485 124.419 92.5493 124.419 92.5501C124.419 92.5493 124.419 92.5486 124.42 92.5477ZM124.527 92.2817C124.526 92.2822 124.526 92.2824 124.526 92.283C124.526 92.2824 124.526 92.2819 124.527 92.2817Z" fill="#000072"/>
<path d="M16.9235 93.0985C17.0312 93.4265 17.1483 93.7592 17.2702 94.1013C20.5174 102.419 26.8854 106.851 30.7418 101.833L28.4411 90.5354L26.876 82.8553C20.8596 78.746 12.8375 80.5921 16.9235 93.0985Z" fill="#FDBD91"/>
<path d="M26.8847 104.159C28.415 104.159 29.7948 103.408 30.9076 101.96L30.9655 101.884L27.064 82.7306L26.9941 82.6828C23.7096 80.4395 20.0128 80.0506 17.7963 81.7137C16.3528 82.7964 14.2945 85.7238 16.7257 93.1632C16.8335 93.493 16.9513 93.8274 17.0738 94.1713C19.2439 99.7305 22.823 103.629 26.1933 104.109C26.4267 104.142 26.6575 104.159 26.8847 104.159ZM30.5179 101.78C29.3468 103.264 27.8765 103.925 26.2521 103.695C23.0285 103.236 19.5789 99.4404 17.4649 94.0251C17.3456 93.6907 17.2288 93.3599 17.122 93.0333C15.3803 87.7032 15.709 83.8018 18.047 82.0475C20.1052 80.5028 23.5701 80.8799 26.6885 82.9804L30.5179 101.78Z" fill="#000072"/>
<g opacity="0.3">
<path d="M16.9235 93.0984C17.0312 93.4264 17.1483 93.7591 17.2702 94.1012C20.5174 102.418 26.8854 106.851 30.7418 101.833L28.4411 90.5353C27.9022 90.4931 27.5789 90.4697 27.5789 90.4697C25.2407 97.7843 21.8435 98.4355 17.3873 92.419C17.3873 92.419 17.2187 92.6674 16.9235 93.0984Z" fill="#000072"/>
</g>
<path d="M26.8762 105.354C28.7752 105.354 30.5194 104.428 31.8561 102.689C32.1049 102.366 32.2005 101.951 32.119 101.552L28.2533 82.5745C28.1808 82.2161 27.971 81.9003 27.6691 81.6942C23.916 79.1314 19.6297 78.7759 17.0046 80.8118C15.2435 82.177 12.7641 85.781 15.9481 94.5792C18.3182 100.651 22.1739 104.744 26.0232 105.292C26.3104 105.333 26.5948 105.354 26.8762 105.354ZM29.2279 101.444C28.4007 102.31 27.4757 102.659 26.4198 102.509C23.6596 102.116 20.5091 98.5312 18.5797 93.5898C16.7092 88.4195 16.7581 84.56 18.7269 83.034C20.2661 81.8408 23.0426 82.1321 25.6163 83.7134L29.2279 101.444Z" fill="#000072"/>
<path d="M115.065 93.0985C114.957 93.4265 114.84 93.7592 114.718 94.1013C111.471 102.419 105.103 106.851 101.246 101.833L103.547 90.5354L105.112 82.8553C111.129 78.746 119.151 80.5921 115.065 93.0985Z" fill="#FDBD91"/>
<path d="M105.103 104.242C105.334 104.242 105.569 104.225 105.807 104.191C109.206 103.707 112.811 99.7881 114.99 94.2073C115.116 93.8547 115.234 93.5198 115.343 93.1895V93.189C117.789 85.7004 115.703 82.7432 114.242 81.6468C111.997 79.9624 108.262 80.3505 104.948 82.6141L104.85 82.6809L100.934 101.905L101.015 102.01C102.145 103.48 103.546 104.242 105.103 104.242ZM114.787 93.0076C114.681 93.3334 114.564 93.6636 114.443 94.003C112.343 99.3826 108.919 103.158 105.725 103.613C104.122 103.841 102.722 103.218 101.559 101.759L105.375 83.0303C108.457 80.9656 111.869 80.5955 113.891 82.1141C116.199 83.8453 116.517 87.7137 114.787 93.0076Z" fill="#000072"/>
<g opacity="0.55">
<path d="M106.443 103.812C109.418 102.819 112.487 99.2293 114.437 94.239C114.558 93.897 114.675 93.5643 114.783 93.2362C118.869 80.7298 110.847 78.8836 104.831 82.9931L104.803 83.1336C110.243 81.0765 115.73 83.9303 112.206 94.7216C112.098 95.0496 111.981 95.3823 111.859 95.7244C110.477 99.2716 108.523 102.111 106.443 103.812Z" fill="white"/>
</g>
<path d="M105.112 105.354C105.393 105.354 105.678 105.334 105.965 105.293C109.814 104.744 113.67 100.651 116.028 94.6123C119.224 85.7811 116.745 82.1772 114.984 80.812C112.358 78.777 108.073 79.1314 104.32 81.6944C104.018 81.9005 103.808 82.2163 103.736 82.5747L99.8693 101.552C99.7878 101.951 99.8836 102.366 100.132 102.69C101.469 104.428 103.213 105.354 105.112 105.354ZM110.822 82.3019C111.779 82.3019 112.626 82.5414 113.261 83.0341C115.23 84.5602 115.279 88.4197 113.396 93.6229C111.479 98.5313 108.329 102.116 105.568 102.509C104.511 102.659 103.589 102.311 102.76 101.444L106.372 83.7136C107.883 82.7854 109.464 82.3019 110.822 82.3019Z" fill="#000072"/>
<path d="M27.7243 90.8212V97.3156C27.7243 108.487 33.0708 119.081 42.2783 125.407C42.4096 125.496 42.5408 125.58 42.6673 125.669C56.7106 135.083 75.0976 135.083 89.141 125.674C89.2675 125.585 89.3987 125.496 89.5298 125.407C98.7421 119.086 104.089 108.491 104.089 97.3157V90.8213C104.089 90.8213 104.065 90.4043 104.018 89.6545C103.672 83.727 102.102 57.1304 101.849 56.4509C93.4893 33.9497 9.91348 39.4649 27.7243 90.8212Z" fill="#FDBD91"/>
<path d="M65.9089 133.058C74.0535 133.058 82.197 130.678 89.3036 125.917C89.422 125.833 89.5387 125.754 89.6559 125.674C98.8906 119.338 104.381 108.746 104.381 97.3155V90.821C104.38 90.8045 104.356 90.3869 104.31 89.6363C103.738 79.8591 102.381 57.0417 102.122 56.3489C99.9281 50.4427 92.4893 46.0665 81.7138 44.3429C71.3122 42.6791 59.1958 43.8068 49.3033 47.3589C39.426 50.9058 17.5333 62.2442 27.4327 90.8702V97.3154C27.4327 108.74 32.9206 119.332 42.1131 125.647L42.2646 125.749C42.3439 125.802 42.4229 125.854 42.4996 125.908C49.6103 130.675 57.7602 133.058 65.9089 133.058ZM71.8543 44.1725C75.1941 44.1725 78.486 44.418 81.6212 44.9197C92.1831 46.6088 99.4559 50.8488 101.574 56.5526C101.777 57.3008 102.861 74.8628 103.727 89.6714C103.774 90.4205 103.797 90.837 103.797 90.8375L103.797 97.3154C103.797 108.554 98.4013 118.965 89.3643 125.166C89.2076 125.273 89.0878 125.354 88.9725 125.435C74.9599 134.823 56.8454 134.821 42.8296 125.427C42.7539 125.373 42.6713 125.318 42.5878 125.263L42.442 125.165C33.4093 118.96 28.0161 108.548 28.0161 97.3154L28.0003 90.7253C18.2314 62.5574 39.7813 51.3986 49.5003 47.9087C56.3225 45.4587 64.2125 44.1725 71.8543 44.1725Z" fill="#000072"/>
<g opacity="0.3">
<path d="M27.7243 90.8213V97.3157C27.7243 108.487 33.0708 119.081 42.2784 125.407C42.4096 125.496 42.5408 125.58 42.6674 125.669C56.7106 135.083 75.0977 135.083 89.141 125.674C89.2675 125.585 89.3987 125.496 89.5299 125.407C89.8204 125.206 90.1109 124.999 90.3967 124.789C77.1828 131.213 61.3449 130.257 48.9134 121.921C48.7869 121.832 48.6557 121.747 48.5246 121.658C39.317 115.333 33.9705 104.738 33.9705 93.5671L33.4151 85.3805C27.3704 67.9541 33.5581 57.5006 43.9607 49.9377C29.8048 56.9149 20.5597 70.1569 27.7243 90.8213Z" fill="#000072"/>
</g>
<g opacity="0.3">
<path d="M27.7243 90.8212V93.4593C31.9227 87.2741 32.7334 70.3958 32.7334 70.3958C36.4039 74.3819 57.0196 78.978 71.4875 71.2922C72.268 70.8777 73.1242 71.7066 72.7325 72.4987C72.556 72.8556 72.4846 72.9761 72.4846 72.9761C74.3875 74.1541 83.3511 73.006 88.2135 70.1766C89.5658 69.3896 91.2904 70.242 91.5326 71.7878C92.6221 78.7396 96.0831 83.5792 103.489 90.8213C103.672 90.4324 103.85 90.0434 104.018 89.6545C103.672 83.727 102.102 57.1304 101.849 56.4509C93.4893 33.9497 9.91351 39.4649 27.7243 90.8212Z" fill="#000072"/>
</g>
<g opacity="0.55">
<path d="M50.0615 129.61C62.76 134.816 77.4546 133.504 89.141 125.674C89.2675 125.585 89.3987 125.496 89.5298 125.407C98.7421 119.086 104.089 108.491 104.089 97.3155V90.8211C104.089 90.8211 102.135 57.2146 101.849 56.4508C100.092 51.7228 95.0169 48.2319 88.2553 46.1421C93.3394 48.2648 97.0739 51.3339 98.5311 55.2513C98.817 56.0198 100.771 89.6215 100.771 89.6215V96.1161C100.771 107.292 95.4244 117.886 86.2121 124.212C86.0809 124.296 85.936 124.368 85.8185 124.475C76.7007 132.73 61.9446 133.344 50.0615 129.61Z" fill="white"/>
</g>
<path d="M65.9058 134.174C74.2665 134.174 82.6261 131.73 89.9209 126.841C90.0555 126.751 90.1901 126.66 90.3247 126.568C99.8234 120.05 105.494 109.114 105.494 97.3153V90.8211C105.494 90.7938 105.494 90.7668 105.492 90.7396C103.526 56.949 103.255 56.1988 103.166 55.9596C98.0216 42.1181 69.0403 39.0867 48.9223 46.3123C39.339 49.7546 32.0832 55.2134 27.9382 62.0982C23.0609 70.2012 22.5161 79.9431 26.3186 91.0565V97.3153C26.3186 109.111 31.988 120.046 41.4845 126.565L41.8847 126.837C49.1807 131.728 57.5434 134.174 65.9058 134.174ZM102.683 90.8619V97.3153C102.683 108.187 97.468 118.256 88.7335 124.25C88.6084 124.336 88.4832 124.421 88.357 124.505C74.7156 133.647 57.0892 133.646 43.452 124.502L43.0771 124.248C34.3435 118.253 29.1301 108.185 29.1301 97.3154V90.8212C29.1301 90.6645 29.1039 90.5086 29.0528 90.3606C19.6089 63.1346 40.4672 52.3371 49.8733 48.9583C70.2605 41.6362 96.2039 45.6911 100.492 56.8376C100.753 58.653 101.937 78.0492 102.683 90.8619ZM100.521 56.9113C100.524 56.9195 100.528 56.9294 100.53 56.9376C100.528 56.93 100.524 56.9213 100.521 56.9113Z" fill="#000072"/>
<path d="M28.1647 42.6746C17.6216 56.1463 18.9337 79.5893 27.8133 91.8755C34.6076 88.1269 35.0575 70.3958 35.0575 70.3958C51.1391 74.7724 67.4128 72.1014 82.1685 59.3888C82.4824 64.3839 78.298 69.0181 78.298 69.0181C80.1957 68.9619 81.8967 68.6854 83.4242 68.2262C88.7614 66.6283 91.9383 62.7627 93.8829 57.9035C95.7572 74.7724 95.8743 78.521 104.089 90.8211C112.289 73.2494 113.798 51.5776 100.129 45.0972C119.186 38.537 112.158 25.2575 95.7572 37.0517C103.803 25.4918 93.6486 21.0356 91.54 33.7717C79.6804 12.1092 27.579 19.7143 20.5174 44.3147L28.1459 42.6794C28.16 42.6746 28.1647 42.6746 28.1647 42.6746Z" fill="#AC3D50"/>
<path d="M27.7281 92.2558L27.9543 92.1309C34.3482 88.6034 35.2311 73.4202 35.3369 70.7732C52.4195 75.3135 68.0777 71.6932 81.8931 60.0081C81.8479 64.591 78.1206 68.7787 78.0811 68.8223L77.6231 69.3298L78.3062 69.3098C80.1657 69.2549 81.9157 68.9846 83.5086 68.5061C88.1246 67.1238 91.4728 64.0239 93.7151 59.0447L93.8176 59.9699C95.4847 75.0745 95.9327 79.1343 103.846 90.9833L104.134 91.4145L104.353 90.9446C112.612 73.2461 113.985 52.0213 100.875 45.1432C108.572 42.3485 111.599 38.5847 111.849 35.9467C111.98 34.5689 111.389 33.429 110.183 32.7373C107.924 31.4405 103.278 31.6724 96.8181 35.9627C99.5247 31.5344 99.4485 28.3296 98.4709 26.8605C97.8983 25.9999 97.0006 25.6276 96.0178 25.8401C94.3729 26.1932 92.3425 28.2503 91.3965 32.9352C84.8742 22.0993 69.1399 19.7032 56.3987 21.1196C41.217 22.8069 24.148 30.6086 20.2367 44.2339L20.1026 44.702L27.4542 43.1263C17.2247 56.9636 19.001 80.1804 27.5768 92.0466L27.7281 92.2558ZM34.7752 70.0163L34.7657 70.3884C34.7609 70.5619 34.254 87.5971 27.8963 91.4894C19.4436 79.5439 17.8503 56.3278 28.3943 42.8544L28.764 42.3825L28.0504 42.4035L20.9387 43.9256C25.031 30.8502 41.6519 23.3461 56.4633 21.7C69.2839 20.2746 85.1639 22.7343 91.2839 33.9116L91.6899 34.6533L91.8282 33.819C92.6496 28.8583 94.6641 26.728 96.1402 26.411C96.8901 26.2508 97.5448 26.5237 97.9844 27.184C98.9505 28.636 98.8841 32.0475 95.5176 36.8849L94.5443 38.284L95.9279 37.2888C102.813 32.3381 107.756 32.0154 109.893 33.2438C110.888 33.8149 111.376 34.7551 111.268 35.8915C111.038 38.3058 107.959 42.0932 100.034 44.8212L99.3565 45.0545L100.004 45.3611C113.311 51.6699 112.111 72.6105 104.042 90.2249C96.4869 78.8273 96.0325 74.7124 94.3981 59.9063L94.0442 56.7137L93.6114 57.7949C91.4464 63.2049 88.0867 66.5258 83.3408 67.9467C81.9856 68.354 80.5101 68.6059 78.9467 68.6974C80.0284 67.3386 82.7202 63.5115 82.4599 59.3706L82.4231 58.7843L81.9782 59.1679C68.1097 71.1161 52.35 74.7998 35.1343 70.114L34.7752 70.0163Z" fill="#000072"/>
<g opacity="0.3">
<path d="M95.8333 54.9667C95.1346 56.3151 94.4971 57.8352 94.075 59.6372C95.7759 75.0487 96.1648 78.9519 104.089 90.8211C105.016 88.8297 105.86 86.7913 106.6 84.7249C100.094 74.6323 99.3332 68.9315 97.8301 55.3342C97.7146 54.2889 96.3172 54.0331 95.8333 54.9667Z" fill="#000072"/>
</g>
<g opacity="0.55">
<path d="M98.8546 35.0508C109.173 30.679 112.907 38.2371 102.856 44.0382C117.363 37.7124 112.19 27.4131 98.8546 35.0508Z" fill="white"/>
</g>
<g opacity="0.55">
<path d="M100.457 45.2612C100.448 45.2655 100.438 45.27 100.428 45.2743C99.1292 45.8486 98.8546 47.5532 99.9479 48.4598C109.284 56.2006 108.929 73.6174 102.767 88.8016C103.179 89.4483 103.62 90.1231 104.089 90.8212C112.223 73.39 113.774 51.9291 100.457 45.2612Z" fill="white"/>
</g>
<g opacity="0.55">
<path d="M96.3993 36.8642L96.4309 36.8467C101.876 28.4638 96.9216 23.6363 93.6135 27.5021C95.4407 27.7718 96.5257 30.5976 94.4966 35.0685C93.9584 36.2544 95.2563 37.4887 96.3993 36.8642Z" fill="white"/>
</g>
<g opacity="0.55">
<path d="M30.8591 31.663C39.837 27.5208 51.8608 24.7515 62.7739 24.7C64.4561 27.9285 70.1259 27.7691 72.511 25.4731C78.6494 26.5743 83.846 28.8984 87.0885 32.7736C88.0163 33.8841 89.8297 33.8091 90.5607 32.5581C90.6029 32.4925 90.6404 32.4222 90.6731 32.3426C80.505 19.3768 46.205 18.3085 30.8591 31.663Z" fill="white"/>
</g>
<path d="M27.8144 93.2814C28.0448 93.2814 28.2783 93.2247 28.4923 93.1063C34.6916 89.6861 36.0763 77.057 36.3818 72.188C52.3864 76.0694 67.1385 72.8869 80.313 62.7177C79.3606 65.6994 77.2814 68.0464 77.253 68.0776C76.8775 68.4964 76.7865 69.0996 77.0237 69.6097C77.255 70.1069 77.7526 70.4236 78.2979 70.4236C78.3121 70.4236 78.3263 70.4236 78.3409 70.4231C84.7954 70.2248 89.7069 67.6189 92.9957 62.6614C94.4802 75.9179 95.3258 80.2307 102.92 91.6018C103.202 92.0235 103.685 92.2599 104.195 92.2229C104.702 92.1842 105.148 91.8758 105.362 91.4157C113.421 74.1477 114.975 53.5533 103.355 45.3553C110.001 42.4675 112.701 38.7599 112.958 36.0522C113.13 34.2403 112.321 32.6801 110.738 31.7714C108.611 30.5492 104.701 30.4598 99.4538 33.1273C100.611 29.979 100.308 27.6115 99.398 26.2434C98.5704 25.0006 97.2173 24.4426 95.7837 24.7511C93.7192 25.1947 92.0059 27.2065 90.9463 30.316C83.5132 20.7708 68.5335 18.6515 56.2756 20.0127C40.7247 21.7409 23.2193 29.8059 19.1665 43.9266C19.0297 44.4014 19.1528 44.9129 19.4899 45.2739C19.827 45.6351 20.3281 45.7921 20.8124 45.689L24.9946 44.7919C21.1895 51.0341 19.1849 59.0384 19.2995 67.738C19.4263 77.2916 22.1139 86.3894 26.6737 92.6989C26.9467 93.0764 27.3758 93.2814 27.8144 93.2814ZM35.0581 68.9902C34.7589 68.9902 34.4639 69.0856 34.2183 69.2682C33.8723 69.5258 33.6636 69.9283 33.6525 70.3599C33.5394 74.7277 32.3194 86.0774 28.1624 89.8952C20.5038 78.0283 19.2927 56.2918 29.2715 43.5411C29.6365 43.0752 29.6701 42.4308 29.3561 41.9293C29.0427 41.4274 28.4506 41.176 27.8695 41.3002L22.6813 42.4129C27.5528 30.9522 42.8571 24.3332 56.5863 22.8071C72.2486 21.0673 85.483 25.6355 90.3068 34.4466C90.5955 34.9727 91.185 35.2583 91.7756 35.1576C92.3666 35.0571 92.8288 34.5928 92.9266 34.0012C93.7092 29.2764 95.5238 27.6828 96.3737 27.5002C96.5824 27.4553 96.827 27.455 97.0573 27.8012C97.6363 28.6715 97.8687 31.557 94.6037 36.2488C94.2124 36.8109 94.2834 37.5729 94.7709 38.0535C95.26 38.5334 96.023 38.5922 96.5783 38.1931C102.619 33.8484 107.34 33.0628 109.338 34.21C109.958 34.5655 110.227 35.081 110.159 35.7862C109.946 38.0359 106.62 41.3764 99.6714 43.7683C99.1307 43.9541 98.7569 44.4487 98.7253 45.0193C98.6938 45.5898 99.0103 46.1228 99.5267 46.3676C106.879 49.8534 108.685 57.7991 108.904 63.851C109.165 71.0259 107.336 79.6671 103.852 87.8956C97.518 78.0205 97.0689 73.9532 95.5049 59.7841L95.2798 57.7482C95.2083 57.1074 94.7103 56.5973 94.0713 56.5105C93.4309 56.4235 92.8167 56.7834 92.5774 57.3817C90.314 63.0423 86.5984 66.3092 81.265 67.2997C82.4729 65.3041 83.766 62.3955 83.5714 59.301C83.5377 58.7684 83.2059 58.3005 82.7137 58.0934C82.2225 57.8862 81.6552 57.9751 81.2508 58.3242C67.6793 70.0155 52.2637 73.6211 35.4266 69.0395C35.3053 69.0063 35.1812 68.9902 35.0581 68.9902Z" fill="#000072"/>
<path d="M35.0586 71.8018C35.6786 71.8018 36.2465 71.3883 36.4148 70.7609C36.6167 70.011 36.1724 69.2398 35.4225 69.0382C33.6766 68.5687 31.9112 68.0049 30.1754 67.3623C29.447 67.0931 28.6383 67.4647 28.3691 68.1927C28.0998 68.9207 28.4716 69.7295 29.1995 69.999C31.0158 70.6713 32.8636 71.2613 34.6926 71.7532C34.8146 71.786 34.9376 71.8018 35.0586 71.8018Z" fill="#000072"/>
<g opacity="0.3">
<path d="M27.8132 91.8754C34.6076 88.1268 35.0574 70.3957 35.0574 70.3957C51.139 74.7723 67.4128 72.1013 82.1684 59.3888C82.4824 64.3839 78.2979 69.018 78.2979 69.018C80.1956 68.9618 81.8966 68.6854 83.4242 68.2262C91.1182 55.5464 87.8429 52.5568 76.7797 56.4554C46.0784 66.3612 23.7272 67.9122 28.1646 42.6746C17.6216 56.1464 18.9337 79.5892 27.8132 91.8754Z" fill="#000072"/>
</g>
<g opacity="0.2">
<path d="M35.6078 54.3903C35.6078 56.5198 39.7769 58.2461 44.92 58.2461C50.0629 58.2461 54.2322 56.5198 54.2322 54.3903C54.2322 52.2608 50.0629 52.2058 44.92 52.2058C39.7769 52.2057 35.6078 52.2608 35.6078 54.3903Z" fill="#FEFEFE"/>
</g>
<path d="M60.9796 116.815C60.9796 116.815 62.9961 118.103 68.2507 118.103C69.3906 118.182 72.6529 118.003 76.7755 114.239C76.7755 114.239 74.871 119.728 68.3734 119.728C68.3734 119.728 64.6765 120.064 60.9796 116.815Z" fill="#000072"/>
<path d="M90.8145 92.4202C90.373 90.9865 89.3168 89.7935 88.0153 88.9819C86.707 88.1713 85.139 87.7564 83.5843 87.7727C82.028 87.7834 80.4822 88.2296 79.1884 89.0359C77.9 89.8443 76.8427 91.0039 76.3489 92.4203C77.763 91.9344 78.9675 91.5464 80.1565 91.2965C81.3372 91.0415 82.4758 90.9153 83.613 90.8994C84.7502 90.8879 85.885 90.9883 87.0553 91.2371C88.2335 91.4805 89.4235 91.8781 90.8145 92.4202Z" fill="#000072"/>
<path d="M40.4339 92.4202C41.8248 91.8781 43.0149 91.4805 44.1931 91.2371C45.3634 90.9883 46.4982 90.8879 47.6354 90.8994C48.7725 90.9152 49.911 91.0414 51.0919 91.2965C52.2809 91.5463 53.4854 91.9344 54.8994 92.4203C54.4056 91.0039 53.3484 89.8444 52.06 89.0359C50.7661 88.2297 49.2204 87.7836 47.664 87.7727C46.1093 87.7564 44.5415 88.1713 43.2331 88.9819C41.9315 89.7935 40.8754 90.9865 40.4339 92.4202Z" fill="#000072"/>
<path d="M82.1685 107.358C79.4996 107.358 77.3361 104.504 77.3361 100.984C77.3361 97.4628 79.4996 94.6086 82.1685 94.6086C84.8374 94.6086 87.001 97.4628 87.001 100.984C87.001 104.504 84.8374 107.358 82.1685 107.358Z" fill="#000072"/>
<path d="M80.9341 101.646C80.1278 101.646 79.4741 100.687 79.4741 99.5049C79.4741 98.3227 80.1278 97.3643 80.9341 97.3643C81.7405 97.3643 82.3942 98.3227 82.3942 99.5049C82.3942 100.687 81.7405 101.646 80.9341 101.646Z" fill="white"/>
<path d="M80.9339 101.938C81.9168 101.938 82.6862 100.869 82.6862 99.5047C82.6862 98.1406 81.9168 97.072 80.9339 97.072C79.9516 97.072 79.1822 98.1406 79.1822 99.5047C79.1822 100.869 79.9516 101.938 80.9339 101.938ZM80.9339 97.6562C81.5671 97.6562 82.1024 98.5026 82.1024 99.5046C82.1024 100.507 81.5671 101.353 80.9339 101.353C80.3008 101.353 79.766 100.507 79.766 99.5046C79.766 98.5025 80.3008 97.6562 80.9339 97.6562Z" fill="#000072"/>
<path d="M48.7553 107.358C46.0864 107.358 43.9228 104.504 43.9228 100.984C43.9228 97.4628 46.0864 94.6086 48.7553 94.6086C51.4242 94.6086 53.5878 97.4628 53.5878 100.984C53.5878 104.504 51.4242 107.358 48.7553 107.358Z" fill="#000072"/>
<path d="M49.9897 101.646C49.1833 101.646 48.5296 100.687 48.5296 99.5049C48.5296 98.3227 49.1833 97.3643 49.9897 97.3643C50.796 97.3643 51.4497 98.3227 51.4497 99.5049C51.4497 100.687 50.796 101.646 49.9897 101.646Z" fill="white"/>
<path d="M49.9895 101.938C50.9723 101.938 51.7417 100.869 51.7417 99.5047C51.7417 98.1406 50.9723 97.072 49.9895 97.072C49.0072 97.072 48.2378 98.1406 48.2378 99.5047C48.2378 100.869 49.0072 101.938 49.9895 101.938ZM49.9895 97.6562C50.6226 97.6562 51.158 98.5026 51.158 99.5046C51.158 100.507 50.6226 101.353 49.9895 101.353C49.3563 101.353 48.8215 100.507 48.8215 99.5046C48.8215 98.5025 49.3563 97.6562 49.9895 97.6562Z" fill="#000072"/>
</svg>
