<svg width="40" height="38" viewBox="0 0 40 38" fill="none" xmlns="http://www.w3.org/2000/svg">
<path d="M39.4141 17.9688L33.0781 14.4531C32.703 14.2656 32.2812 14.2656 31.9062 14.4531L29.375 15.8832V6.10938H10.625V15.8832L8.09367 14.4531C7.71875 14.2656 7.29688 14.2656 6.9218 14.4531L0.585938 17.9688C0.234297 18.1796 0 18.5781 0 19C0 19.4219 0.234297 19.8202 0.585938 20.0313L5.09375 22.5156L17.0703 32.9219H22.9297L34.9062 22.5156L39.4141 20.0313C39.7657 19.8202 40 19.4219 40 19C40 18.5781 39.7657 18.1796 39.4141 17.9688ZM20 21.1797L14.0676 17.8281H25.9323L20 21.1797Z" fill="url(#paint0_linear_2_1060)"/>
<path d="M39.4141 25L34.9062 22.5156L20.5859 30.5781C20.3984 30.6718 20.1875 30.7188 20 30.7188C19.8125 30.7188 19.6016 30.6718 19.4141 30.5781L5.09375 22.5156L0.585938 25C0.234297 25.2109 0 25.6094 0 26.0312C0 26.4531 0.234297 26.8515 0.585938 27.0625L19.4141 37.6094C19.6016 37.703 19.8125 37.75 20 37.75C20.1875 37.75 20.3984 37.703 20.5859 37.6094L39.4141 27.0625C39.7657 26.8515 40 26.4531 40 26.0312C40 25.6094 39.7657 25.2109 39.4141 25ZM0.585938 13L19.4141 23.5469C19.6016 23.6405 19.8125 23.6875 20 23.6875C20.1875 23.6875 20.3984 23.6405 20.5859 23.5469L39.4141 13C39.7657 12.789 40 12.3906 40 11.9688C40 11.5469 39.7657 11.1484 39.4141 10.9375L20.5859 0.390625C20.211 0.203125 19.789 0.203125 19.4141 0.390625L0.585938 10.9375C0.234297 11.1484 0 11.5469 0 11.9688C0 12.3906 0.234297 12.789 0.585938 13ZM23.8673 10.4452C23.3985 9.99992 23.3985 9.24992 23.8673 8.80461C24.3126 8.33594 25.0625 8.33594 25.5078 8.80461L27.8516 11.1484C28.3203 11.5937 28.3203 12.3437 27.8516 12.789L25.5078 15.1327C25.0863 15.6015 24.2891 15.6016 23.8673 15.1327C23.3985 14.6874 23.3985 13.9374 23.8673 13.4921L25.3671 11.9688L23.8673 10.4452ZM18.2656 14.0312L19.4375 9.34375C19.6016 8.71086 20.2343 8.33594 20.8672 8.49984C21.5001 8.64047 21.875 9.27336 21.7344 9.90617L20.5625 14.5937C20.3628 15.3592 19.498 15.6202 19.1328 15.4374C18.5 15.2969 18.125 14.664 18.2656 14.0312ZM12.1485 11.1484L14.4923 8.80461C14.9376 8.33594 15.6875 8.33594 16.1328 8.80461C16.6016 9.24992 16.6016 9.99992 16.1328 10.4452L14.6329 11.9688L16.1327 13.4921C16.6015 13.9374 16.6015 14.6874 16.1327 15.1327C15.7112 15.6015 14.914 15.6016 14.4922 15.1327L12.1484 12.789C11.6797 12.3437 11.6797 11.5937 12.1485 11.1484Z" fill="url(#paint1_linear_2_1060)"/>
<defs>
<linearGradient id="paint0_linear_2_1060" x1="20" y1="32.9219" x2="20" y2="6.10938" gradientUnits="userSpaceOnUse">
<stop stop-color="#ADDCFF"/>
<stop offset="0.5028" stop-color="#EAF6FF"/>
<stop offset="1" stop-color="#EAF6FF"/>
</linearGradient>
<linearGradient id="paint1_linear_2_1060" x1="20" y1="37.75" x2="20" y2="0.25" gradientUnits="userSpaceOnUse">
<stop stop-color="#5558FF"/>
<stop offset="1" stop-color="#000072"/>
</linearGradient>
</defs>
</svg>
